<?xml version="1.0" encoding="iso-8859-1"?>
<!-- Generator: Adobe Illustrator 25.4.1, SVG Export Plug-In . SVG Version: 6.00 Build 0)  -->
<svg version="1.1" id="Layer_1" xmlns="http://www.w3.org/2000/svg" xmlns:xlink="http://www.w3.org/1999/xlink" x="0px" y="0px"
	 viewBox="0 0 100 100" style="enable-background:new 0 0 100 100;" xml:space="preserve">
<path style="fill:#E85654;" d="M86,24c0,0-3.75-4.25-6-6.5s-5-3-9.5-1L63,8H50H37l-7.5,8.5c-4.5-2-7.25-1.25-9.5,1S14,24,14,24
	l3,4.5l-3,7l9.382,36.633c0.721,2.815,2.439,5.273,4.835,6.917l19.098,13.106c1.618,1.111,3.753,1.111,5.372,0l19.098-13.106
	c2.396-1.644,4.114-4.102,4.835-6.917L86,35.5l-3-7L86,24z"/>
<g>
	<path style="fill:#F5905F;" d="M22,16.01v50.73L14,35.5l3-7L14,24c0,0,3.75-4.25,6-6.5C20.62,16.88,21.28,16.37,22,16.01z"/>
	<path style="fill:#F3865D;" d="M33,12.53v69.8l-4.78-3.28c-2.4-1.64-4.12-4.1-4.84-6.92L22,66.74V16.01
		c1.9-0.96,4.24-0.96,7.5,0.49L33,12.53z"/>
	<polygon style="fill:#F17D5B;" points="44,8 44,89.89 33,82.33 33,12.53 37,8 	"/>
	<path style="fill:#EF735A;" d="M55,8v82.57l-2.31,1.59c-1.62,1.11-3.76,1.11-5.38,0L44,89.89V8H55z"/>
	<polygon style="fill:#EC6958;" points="66,11.4 66,83.02 55,90.57 55,8 63,8 	"/>
	<path style="fill:#EA6056;" d="M77,15.62v55.03l-0.38,1.48c-0.72,2.82-2.44,5.28-4.84,6.92L66,83.02V11.4l4.5,5.1
		C73.21,15.3,75.29,15.09,77,15.62z"/>
	<path style="fill:#E85654;" d="M83,28.5l3,7l-9,35.15V15.62c1.13,0.33,2.11,0.99,3,1.88c2.25,2.25,6,6.5,6,6.5L83,28.5z"/>
</g>
<path style="fill:#1F212B;" d="M50,93.982c-1.14,0-2.279-0.333-3.251-1.001L27.65,79.875c-2.596-1.782-4.457-4.443-5.237-7.493
	l-9.382-36.634c-0.055-0.214-0.037-0.439,0.05-0.642l2.787-6.503l-2.7-4.049c-0.251-0.377-0.218-0.876,0.082-1.217
	c0.154-0.174,3.797-4.299,6.043-6.545c2.653-2.653,5.823-3.137,9.933-1.494l7.024-7.961C36.44,7.123,36.713,7,37,7h26
	c0.287,0,0.56,0.123,0.75,0.338l7.024,7.961c4.109-1.642,7.28-1.16,9.933,1.494c2.246,2.246,5.889,6.371,6.043,6.545
	c0.3,0.341,0.333,0.84,0.082,1.217l-2.7,4.049l2.787,6.503c0.087,0.202,0.104,0.428,0.05,0.642l-9.382,36.634
	c-0.781,3.05-2.641,5.711-5.237,7.493L53.252,92.981C52.279,93.648,51.14,93.982,50,93.982z M15.053,35.581l9.297,36.305
	c0.661,2.58,2.235,4.832,4.432,6.341L47.88,91.333c1.268,0.869,2.973,0.869,4.24,0l19.098-13.106
	c2.197-1.509,3.771-3.761,4.432-6.341l9.297-36.305l-2.866-6.688c-0.133-0.311-0.101-0.667,0.087-0.948l2.572-3.858
	c-1.1-1.234-3.733-4.166-5.447-5.88c-1.625-1.626-3.766-2.847-8.387-0.793c-0.4,0.176-0.868,0.075-1.156-0.253L62.549,9H37.451
	l-7.201,8.161c-0.289,0.328-0.757,0.429-1.156,0.253c-4.621-2.053-6.761-0.833-8.387,0.793c-1.714,1.714-4.347,4.646-5.447,5.88
	l2.572,3.858c0.188,0.281,0.22,0.638,0.087,0.948L15.053,35.581z"/>
<g>
	<path style="fill:#FEFDEF;" d="M76.532,39.413c1.703-1.672,1.92-4.341,0.509-6.266L68.5,21.5c0,0-7,2-9.5,2c-3.5,0-5-2-9-2
		s-5.5,2-9,2c-2.5,0-9.5-2-9.5-2l-8.541,11.647c-1.411,1.925-1.195,4.594,0.509,6.266l9.368,9.195
		c0.677,0.665,0.86,1.688,0.443,2.541c-0.738,1.512-1.779,3.9-1.779,5.352c0,3,2.5,6,5.5,6c3.75,0,11.5-6,11.5-8.5c0-3.25-9-5-9-7.5
		c0-3,4-7,4-9c0-2.5-13-6.5-13-6.5s4.75-1.5,8.5-1.5c1.5,0,7,1.654,7,3c0,2.25-1.25,9.75-1.5,13c-0.155,2.01,3.5,2,5.5,2
		s5.655,0.01,5.5-2c-0.25-3.25-1.5-10.75-1.5-13c0-1.346,5.5-3,7-3c3.75,0,8.5,1.5,8.5,1.5s-13,4-13,6.5c0,2,4,6,4,9
		c0,2.5-9,4.25-9,7.5c0,2.5,7.75,8.5,11.5,8.5c3,0,5.5-3,5.5-6c0-1.452-1.041-3.84-1.779-5.352
		c-0.417-0.853-0.234-1.876,0.443-2.541L76.532,39.413z"/>
	<path style="fill:#1F212B;" d="M63,63c-3.925,0-12-6.056-12-9c0-2.037,2.65-3.393,5.214-4.702C57.989,48.391,60,47.362,60,46.5
		c0-1.509-1.183-3.417-2.227-5.1C56.822,39.866,56,38.541,56,37.5c0-2.306,7.664-5.128,11.753-6.469C66.06,30.597,63.316,30,61,30
		c-1.862,0-6.479,1.775-6.5,2.5c0,1.226,0.394,4.148,0.775,6.975c0.301,2.232,0.612,4.541,0.723,5.987
		c0.041,0.525-0.122,1-0.468,1.375C54.459,47.993,51.822,48,50.06,48c-0.022,0-0.042,0-0.063,0c-1.818,0-4.456-0.007-5.527-1.163
		c-0.346-0.375-0.508-0.85-0.468-1.375c0.111-1.446,0.422-3.755,0.723-5.987c0.381-2.826,0.775-5.749,0.775-6.975
		C45.479,31.775,40.862,30,39,30c-2.316,0-5.06,0.597-6.753,1.031C36.336,32.372,44,35.194,44,37.5c0,1.041-0.822,2.366-1.773,3.9
		C41.183,43.083,40,44.991,40,46.5c0,0.862,2.011,1.891,3.786,2.798C46.35,50.607,49,51.963,49,54c0,2.944-8.075,9-12,9
		c-3.14,0-6-3.098-6-6.5c0-1.51,0.995-3.862,1.83-5.571c0.321-0.657,0.182-1.447-0.344-1.965l-9.368-9.195
		c-1.868-1.833-2.11-4.807-0.562-6.918l8.541-11.646c0.124-0.169,0.338-0.244,0.541-0.185C31.707,21.039,38.599,23,41,23
		c1.6,0,2.767-0.445,4.003-0.917C46.398,21.551,47.841,21,50,21s3.602,0.551,4.997,1.083C56.233,22.555,57.4,23,59,23
		c2.401,0,9.293-1.961,9.363-1.98c0.2-0.061,0.417,0.015,0.541,0.185l8.541,11.646c1.548,2.111,1.306,5.085-0.562,6.918
		l-9.368,9.195c-0.526,0.518-0.665,1.308-0.344,1.966C68.005,52.638,69,54.99,69,56.5C69,59.902,66.14,63,63,63z M61,29
		c3.784,0,8.454,1.461,8.65,1.523c0.209,0.065,0.351,0.26,0.35,0.479s-0.144,0.411-0.353,0.476C63.565,33.35,57,36.185,57,37.5
		c0,0.757,0.825,2.087,1.623,3.373C59.737,42.67,61,44.706,61,46.5c0,1.474-2.007,2.5-4.331,3.688C54.48,51.307,52,52.574,52,54
		c0,2.172,7.42,8,11,8c2.617,0,5-2.621,5-5.5c0-1.028-0.614-2.852-1.729-5.132c-0.51-1.046-0.292-2.299,0.542-3.117l9.368-9.195l0,0
		c1.516-1.488,1.711-3.901,0.456-5.613l-8.336-11.367C66.855,22.479,61.252,24,59,24c-1.784,0-3.093-0.5-4.359-0.982
		C53.33,22.518,51.975,22,50,22s-3.33,0.518-4.641,1.018C44.093,23.5,42.784,24,41,24c-2.252,0-7.855-1.521-9.302-1.925
		l-8.336,11.367c-1.256,1.712-1.06,4.125,0.456,5.613l9.368,9.195c0.834,0.818,1.052,2.071,0.542,3.116
		C32.614,53.648,32,55.472,32,56.5c0,2.879,2.383,5.5,5,5.5c3.58,0,11-5.828,11-8c0-1.426-2.48-2.693-4.669-3.812
		C41.007,49,39,47.974,39,46.5c0-1.794,1.263-3.83,2.377-5.627C42.175,39.587,43,38.257,43,37.5c0-1.315-6.565-4.15-12.647-6.022
		c-0.209-0.064-0.352-0.257-0.353-0.476s0.141-0.413,0.35-0.479C30.546,30.461,35.216,29,39,29c1.424,0,7.5,1.615,7.5,3.5
		c0,1.292-0.381,4.117-0.784,7.108c-0.299,2.219-0.608,4.513-0.717,5.93c-0.02,0.251,0.046,0.447,0.205,0.619
		C45.979,46.995,48.546,47,49.946,47c0.019,0.001,0.035,0.001,0.052,0c1.456,0,4.023-0.005,4.799-0.843
		c0.159-0.172,0.224-0.368,0.205-0.619c-0.109-1.417-0.418-3.711-0.717-5.93C53.881,36.617,53.5,33.792,53.5,32.5
		C53.5,30.615,59.576,29,61,29z"/>
</g>
<g>
	<path style="fill:#FEFDEF;" d="M48.036,61.443l-8.892,4.268c-0.756,0.363-0.867,1.394-0.206,1.91l9.318,7.268
		c1.026,0.8,2.464,0.8,3.49,0l9.318-7.268c0.661-0.516,0.55-1.547-0.206-1.91l-8.892-4.268
		C50.723,60.847,49.277,60.847,48.036,61.443z"/>
	<path style="fill:#1F212B;" d="M50,75.99c-0.724,0-1.448-0.235-2.052-0.707l-9.318-7.268c-0.448-0.35-0.679-0.895-0.618-1.46
		c0.061-0.565,0.403-1.049,0.916-1.296l8.892-4.267c1.387-0.666,2.976-0.666,4.362,0l8.892,4.267
		c0.513,0.247,0.855,0.73,0.916,1.296c0.061,0.565-0.17,1.11-0.619,1.46l-9.317,7.268C51.448,75.755,50.724,75.99,50,75.99z
		 M50,61.494c-0.596,0-1.192,0.133-1.748,0.399c0,0.001,0,0.001,0,0.001l-8.892,4.268c-0.201,0.096-0.33,0.279-0.354,0.501
		c-0.024,0.221,0.063,0.427,0.239,0.563l9.318,7.268c0.846,0.662,2.027,0.662,2.874,0l9.318-7.268
		c0.176-0.137,0.263-0.343,0.239-0.563c-0.024-0.222-0.153-0.405-0.354-0.501l-8.892-4.268C51.192,61.627,50.596,61.494,50,61.494z
		 M48.036,61.443h0.01H48.036z"/>
</g>
<g>
	<path style="fill:#1F212B;" d="M53,86.984c-0.159,0-0.316-0.076-0.413-0.217c-0.156-0.228-0.099-0.539,0.129-0.695l16.237-11.144
		c1.398-0.96,2.4-2.393,2.82-4.035l2.181-8.518c0.068-0.268,0.343-0.431,0.608-0.36c0.268,0.068,0.429,0.341,0.36,0.608
		l-2.181,8.518c-0.48,1.877-1.625,3.515-3.223,4.611L53.283,86.896C53.196,86.956,53.098,86.984,53,86.984z"/>
	<path style="fill:#1F212B;" d="M75.209,60c-0.041,0-0.083-0.005-0.125-0.016c-0.268-0.068-0.429-0.341-0.36-0.608l1.793-7
		c0.069-0.268,0.343-0.432,0.608-0.36c0.268,0.068,0.429,0.341,0.36,0.608l-1.793,7C75.635,59.85,75.432,60,75.209,60z"/>
	<path style="fill:#1F212B;" d="M77.77,50c-0.041,0-0.083-0.005-0.125-0.016c-0.268-0.068-0.429-0.341-0.36-0.608l1.281-5
		c0.069-0.267,0.341-0.43,0.608-0.36c0.268,0.068,0.429,0.341,0.36,0.608l-1.281,5C78.196,49.85,77.993,50,77.77,50z"/>
</g>
</svg>